<svg width="121" height="38" viewBox="0 0 121 38" fill="none" xmlns="http://www.w3.org/2000/svg">
<g clip-path="url(#clip0_1_15)">
<path fill-rule="evenodd" clip-rule="evenodd" d="M19 38C29.4934 38 38 29.4934 38 19C38 8.50659 29.4934 0 19 0C8.50659 0 0 8.50659 0 19C0 29.4934 8.50659 38 19 38ZM16 6V31H19V6H16Z" fill="#DD004E"/>
<path d="M35.9107 25.9034L22.6306 20.4626L23.9925 6.22693L21.1935 7.84788L19.8316 22.0835L32.9717 27.6054L35.9107 25.9034Z" fill="#E1E1E1"/>
<path d="M46.696 18.28C48.6 18.28 49.968 18.656 50.8 19.408C51.632 20.144 52.048 21.344 52.048 23.008V27.64C52.048 28.776 52.168 29.896 52.408 31H49.456C49.36 30.472 49.288 29.856 49.24 29.152H49.192C48.744 29.808 48.136 30.32 47.368 30.688C46.616 31.056 45.792 31.24 44.896 31.24C43.728 31.24 42.792 30.92 42.088 30.28C41.4 29.624 41.056 28.72 41.056 27.568C41.056 26.176 41.64 25.064 42.808 24.232C43.992 23.384 45.688 22.96 47.896 22.96H48.928V22.888C48.928 22.04 48.76 21.448 48.424 21.112C48.088 20.776 47.488 20.608 46.624 20.608C45.056 20.608 43.576 20.968 42.184 21.688L41.728 19.36C43.248 18.64 44.904 18.28 46.696 18.28ZM43.984 27.328C43.984 27.84 44.136 28.24 44.44 28.528C44.744 28.816 45.16 28.96 45.688 28.96C46.6 28.96 47.368 28.664 47.992 28.072C48.616 27.48 48.928 26.736 48.928 25.84V25.024H47.896C46.632 25.024 45.664 25.24 44.992 25.672C44.32 26.088 43.984 26.64 43.984 27.328Z" fill="#E1E1E1"/>
<path d="M55.7842 18.52H58.7602L58.8082 20.92H58.8562C60.2802 19.16 62.1922 18.28 64.5922 18.28V20.824C62.8162 20.824 61.4322 21.256 60.4402 22.12C59.4642 22.968 58.9762 24.112 58.9762 25.552V31H55.7842V18.52Z" fill="#E1E1E1"/>
<path d="M72.046 18.28C73.95 18.28 75.318 18.656 76.15 19.408C76.982 20.144 77.398 21.344 77.398 23.008V27.64C77.398 28.776 77.518 29.896 77.758 31H74.806C74.71 30.472 74.638 29.856 74.59 29.152H74.542C74.094 29.808 73.486 30.32 72.718 30.688C71.966 31.056 71.142 31.24 70.246 31.24C69.078 31.24 68.142 30.92 67.438 30.28C66.75 29.624 66.406 28.72 66.406 27.568C66.406 26.176 66.99 25.064 68.158 24.232C69.342 23.384 71.038 22.96 73.246 22.96H74.278V22.888C74.278 22.04 74.11 21.448 73.774 21.112C73.438 20.776 72.838 20.608 71.974 20.608C70.406 20.608 68.926 20.968 67.534 21.688L67.078 19.36C68.598 18.64 70.254 18.28 72.046 18.28ZM69.334 27.328C69.334 27.84 69.486 28.24 69.79 28.528C70.094 28.816 70.51 28.96 71.038 28.96C71.95 28.96 72.718 28.664 73.342 28.072C73.966 27.48 74.278 26.736 74.278 25.84V25.024H73.246C71.982 25.024 71.014 25.24 70.342 25.672C69.67 26.088 69.334 26.64 69.334 27.328Z" fill="#E1E1E1"/>
<path d="M81.8283 13.48L86.1243 27.712H86.1723L90.5163 13.48H94.0203L87.9243 31H84.3243L78.2523 13.48H81.8283Z" fill="#E1E1E1"/>
<path d="M97.261 23.752H103.117C103.101 22.712 102.837 21.92 102.325 21.376C101.829 20.816 101.125 20.536 100.213 20.536C99.333 20.536 98.629 20.816 98.101 21.376C97.589 21.936 97.309 22.728 97.261 23.752ZM97.261 25.888C97.341 26.832 97.701 27.584 98.341 28.144C98.997 28.688 99.821 28.96 100.813 28.96C101.997 28.96 103.173 28.664 104.341 28.072L105.061 30.28C103.621 30.92 102.101 31.24 100.501 31.24C98.613 31.24 97.077 30.656 95.893 29.488C94.725 28.32 94.141 26.744 94.141 24.76C94.141 22.744 94.685 21.16 95.773 20.008C96.861 18.856 98.333 18.28 100.189 18.28C102.045 18.28 103.485 18.832 104.509 19.936C105.549 21.04 106.069 22.624 106.069 24.688C106.069 25.088 106.045 25.488 105.997 25.888H97.261Z" fill="#E1E1E1"/>
<path d="M108.969 18.52H111.897L111.945 20.272H111.993C112.473 19.648 113.065 19.16 113.769 18.808C114.489 18.456 115.225 18.28 115.977 18.28C117.417 18.28 118.473 18.728 119.145 19.624C119.833 20.504 120.177 21.952 120.177 23.968V31H117.105V24.28C117.105 22.904 116.945 21.976 116.625 21.496C116.305 21 115.729 20.752 114.897 20.752C114.193 20.752 113.545 21.112 112.953 21.832C112.377 22.552 112.089 23.392 112.089 24.352V31H108.969V18.52Z" fill="#E1E1E1"/>
</g>
<defs>
<clipPath id="clip0_1_15">
<rect width="121" height="38" fill="white"/>
</clipPath>
</defs>
</svg>
